<!-- icon666.com - MILLIONS vector ICONS FREE --><svg fill="none" viewBox="0 0 25 24" xmlns="http://www.w3.org/2000/svg"><path clip-rule="evenodd" d="m12.5 22c5.5228 0 10-4.4772 10-10 0-5.52285-4.4772-10-10-10-5.52285 0-10 4.47715-10 10 0 5.5228 4.47715 10 10 10zm-4.70711-13.29289c-.39052-.39053-.39052-1.02369 0-1.41422.39053-.39052 1.02369-.39052 1.41422 0l3.29289 3.29291 3.2929-3.29291c.3905-.39052 1.0237-.39052 1.4142 0 .3905.39053.3905 1.02369 0 1.41422l-3.2929 3.29289 3.2929 3.2929c.3905.3905.3905 1.0237 0 1.4142s-1.0237.3905-1.4142 0l-3.2929-3.2929-3.29289 3.2929c-.39053.3905-1.02369.3905-1.41422 0-.39052-.3905-.39052-1.0237 0-1.4142l3.29291-3.2929z" fill="rgb(0,0,0)" fill-rule="evenodd"></path></svg>